<svg width="134" height="56" viewBox="0 0 134 56" fill="none" xmlns="http://www.w3.org/2000/svg">
<g clip-path="url(#clip0_137_72)">
<path d="M39.832 49.5079H1.31168C0.587554 49.5079 0 48.9321 0 48.2219V1.77424C0 1.06431 0.587258 0.488281 1.31168 0.488281H48.6883C49.4124 0.488281 50 1.06402 50 1.77424V21.963C49.81 21.3868 47.5849 14.795 44.1465 11.4472C40.5491 7.94464 34.0262 5.07868 34.9962 7.38224C35.9662 9.6858 35.9662 15.6863 35.9662 15.6863L26.1996 19.4114L24.7347 24.8297L12.7818 27.9811C12.7818 27.9811 13.6336 34.0777 17.0693 35.1432C19.273 35.8267 33.7179 37.4202 33.7179 37.4202L30.9757 49.5079H39.832Z" fill="black"/>
</g>
<path d="M51.3208 42.8467H41.2866V39.6484H51.3208V42.8467ZM52.7368 35.6689H40.0171V50H36.8433V34.0942C36.8433 33.8745 36.884 33.667 36.9653 33.4717C37.0467 33.2764 37.1566 33.1055 37.2949 32.959C37.4414 32.8125 37.6123 32.6986 37.8076 32.6172C38.0029 32.5358 38.2145 32.4951 38.4424 32.4951H52.7368V35.6689ZM69.6924 42.8467H59.6704V39.6484H69.6924V42.8467ZM71.1206 50H59.6704C59.231 50 58.7508 49.9227 58.23 49.7681C57.7091 49.6134 57.2249 49.3612 56.7773 49.0112C56.3379 48.6532 55.9676 48.1934 55.6665 47.6318C55.3735 47.0622 55.2271 46.3664 55.2271 45.5444V34.0942C55.2271 33.8745 55.2677 33.667 55.3491 33.4717C55.4305 33.2764 55.5404 33.1055 55.6787 32.959C55.8252 32.8125 55.9961 32.6986 56.1914 32.6172C56.3867 32.5358 56.5983 32.4951 56.8262 32.4951H71.1206V35.6689H58.4009V45.5444C58.4009 45.9595 58.5107 46.2769 58.7305 46.4966C58.9502 46.7163 59.2716 46.8262 59.6948 46.8262H71.1206V50ZM90.0171 35.6689H83.0225V50H79.8486V35.6689H72.8418V32.4951H90.0171V35.6689ZM108.035 50H96.5845C96.2915 50 95.9741 49.9674 95.6323 49.9023C95.2987 49.8291 94.965 49.7192 94.6313 49.5728C94.3058 49.4263 93.9925 49.2391 93.6914 49.0112C93.3903 48.7752 93.1217 48.4945 92.8857 48.1689C92.6579 47.8353 92.4748 47.4528 92.3364 47.0215C92.1981 46.582 92.1289 46.0897 92.1289 45.5444V36.9507C92.1289 36.6577 92.1615 36.3444 92.2266 36.0107C92.2998 35.6689 92.4097 35.3353 92.5562 35.0098C92.7026 34.6761 92.8939 34.3587 93.1299 34.0576C93.3659 33.7565 93.6466 33.492 93.9722 33.2642C94.3058 33.0282 94.6883 32.841 95.1196 32.7026C95.5509 32.5643 96.0392 32.4951 96.5845 32.4951H108.035V35.6689H96.5845C96.1694 35.6689 95.8521 35.7788 95.6323 35.9985C95.4126 36.2183 95.3027 36.5438 95.3027 36.9751V45.5444C95.3027 45.9513 95.4126 46.2687 95.6323 46.4966C95.8602 46.7163 96.1776 46.8262 96.5845 46.8262H108.035V50ZM114.236 39.6484H125.381V32.4951H128.555V50H125.381V42.8467H114.236V50H111.062V32.4951H114.236V39.6484Z" fill="black"/>
<defs>
<clipPath id="clip0_137_72">
<rect width="50" height="50" fill="white"/>
</clipPath>
</defs>
</svg>
