<svg width="96" height="13" viewBox="0 0 96 13" fill="none" xmlns="http://www.w3.org/2000/svg">
<path d="M14.9561 4.77111L10.3228 4.19628L8.25162 0.611768C8.19504 0.513626 8.10198 0.434178 7.98701 0.385886C7.69868 0.264377 7.34831 0.365635 7.20415 0.611768L5.13293 4.19628L0.499618 4.77111C0.371878 4.78669 0.255087 4.83809 0.165669 4.91599C0.0575671 5.01083 -0.0020017 5.13844 5.13623e-05 5.27076C0.00210443 5.40309 0.0656114 5.5293 0.176618 5.62167L3.52888 8.4117L2.73689 12.3514C2.71832 12.443 2.7302 12.5373 2.77119 12.6235C2.81217 12.7096 2.88062 12.7843 2.96878 12.8389C3.05693 12.8936 3.16126 12.9261 3.26993 12.9327C3.37861 12.9393 3.48728 12.9198 3.58363 12.8764L7.72788 11.0164L11.8721 12.8764C11.9853 12.9278 12.1167 12.9449 12.2426 12.9262C12.5601 12.8795 12.7736 12.6225 12.7189 12.3514L11.9269 8.4117L15.2791 5.62167C15.3704 5.54534 15.4306 5.44564 15.4489 5.33659C15.4981 5.06398 15.2755 4.81161 14.9561 4.77111V4.77111Z" fill="black"/>
<g clip-path="url(#clip0_75_28)">
<path d="M34.4118 4.43664L29.7785 3.86181L27.7073 0.277295C27.6507 0.179153 27.5577 0.0997053 27.4427 0.0514134C27.1544 -0.0700955 26.804 0.0311619 26.6598 0.277295L24.5886 3.86181L19.9553 4.43664C19.8276 4.45221 19.7108 4.50362 19.6214 4.58151C19.5133 4.67636 19.4537 4.80397 19.4557 4.93629C19.4578 5.06861 19.5213 5.19483 19.6323 5.2872L22.9846 8.07723L22.1926 12.0169C22.174 12.1086 22.1859 12.2028 22.2269 12.289C22.2679 12.3752 22.3363 12.4498 22.4245 12.5045C22.5126 12.5591 22.6169 12.5916 22.7256 12.5982C22.8343 12.6048 22.943 12.5853 23.0393 12.5419L27.1836 10.6819L31.3278 12.5419C31.441 12.5933 31.5724 12.6104 31.6983 12.5917C32.0158 12.545 32.2293 12.288 32.1746 12.0169L31.3826 8.07723L34.7348 5.2872C34.8261 5.21087 34.8863 5.11117 34.9045 5.00212C34.9538 4.7295 34.7312 4.47714 34.4118 4.43664V4.43664Z" fill="black"/>
</g>
<g clip-path="url(#clip1_75_28)">
<path d="M55.4118 4.43664L50.7785 3.86181L48.7073 0.277295C48.6507 0.179153 48.5577 0.0997053 48.4427 0.0514134C48.1544 -0.0700955 47.804 0.0311619 47.6598 0.277295L45.5886 3.86181L40.9553 4.43664C40.8276 4.45221 40.7108 4.50362 40.6214 4.58151C40.5133 4.67636 40.4537 4.80397 40.4557 4.93629C40.4578 5.06861 40.5213 5.19483 40.6323 5.2872L43.9846 8.07723L43.1926 12.0169C43.174 12.1086 43.1859 12.2028 43.2269 12.289C43.2679 12.3752 43.3363 12.4498 43.4245 12.5045C43.5126 12.5591 43.6169 12.5916 43.7256 12.5982C43.8343 12.6048 43.943 12.5853 44.0393 12.5419L48.1836 10.6819L52.3278 12.5419C52.441 12.5933 52.5724 12.6104 52.6983 12.5917C53.0158 12.545 53.2293 12.288 53.1746 12.0169L52.3826 8.07723L55.7348 5.2872C55.8261 5.21087 55.8863 5.11117 55.9045 5.00212C55.9538 4.7295 55.7312 4.47714 55.4118 4.43664V4.43664Z" fill="black"/>
</g>
<g clip-path="url(#clip2_75_28)">
<path d="M76.4118 4.43664L71.7785 3.86181L69.7073 0.277295C69.6507 0.179153 69.5577 0.0997053 69.4427 0.0514134C69.1544 -0.0700955 68.804 0.0311619 68.6598 0.277295L66.5886 3.86181L61.9553 4.43664C61.8276 4.45221 61.7108 4.50362 61.6214 4.58151C61.5133 4.67636 61.4537 4.80397 61.4557 4.93629C61.4578 5.06861 61.5213 5.19483 61.6323 5.2872L64.9846 8.07723L64.1926 12.0169C64.174 12.1086 64.1859 12.2028 64.2269 12.289C64.2679 12.3752 64.3363 12.4498 64.4245 12.5045C64.5126 12.5591 64.6169 12.5916 64.7256 12.5982C64.8343 12.6048 64.943 12.5853 65.0393 12.5419L69.1836 10.6819L73.3278 12.5419C73.441 12.5933 73.5724 12.6104 73.6983 12.5917C74.0158 12.545 74.2293 12.288 74.1746 12.0169L73.3826 8.07723L76.7348 5.2872C76.8261 5.21087 76.8863 5.11117 76.9045 5.00212C76.9538 4.7295 76.7312 4.47714 76.4118 4.43664V4.43664Z" fill="black"/>
</g>
<g clip-path="url(#clip3_75_28)">
<path d="M95.4118 4.43664L90.7785 3.86181L88.7073 0.277295C88.6507 0.179153 88.5577 0.0997053 88.4427 0.0514134C88.1544 -0.0700955 87.804 0.0311619 87.6598 0.277295L85.5886 3.86181L80.9553 4.43664C80.8276 4.45221 80.7108 4.50362 80.6214 4.58151C80.5133 4.67636 80.4537 4.80397 80.4557 4.93629C80.4578 5.06861 80.5213 5.19483 80.6323 5.2872L83.9846 8.07723L83.1926 12.0169C83.174 12.1086 83.1859 12.2028 83.2269 12.289C83.2679 12.3752 83.3363 12.4498 83.4245 12.5045C83.5126 12.5591 83.6169 12.5916 83.7256 12.5982C83.8343 12.6048 83.943 12.5853 84.0393 12.5419L88.1836 10.6819L92.3278 12.5419C92.441 12.5933 92.5724 12.6104 92.6983 12.5917C93.0158 12.545 93.2293 12.288 93.1746 12.0169L92.3826 8.07723L95.7348 5.2872C95.8261 5.21087 95.8863 5.11117 95.9045 5.00212C95.9538 4.7295 95.7312 4.47714 95.4118 4.43664V4.43664Z" fill="black"/>
</g>
<defs>
<clipPath id="clip0_75_28">
<rect width="15.4557" height="12.5995" fill="white" transform="translate(19.4557)"/>
</clipPath>
<clipPath id="clip1_75_28">
<rect width="15.4557" height="12.5995" fill="white" transform="translate(40.4557)"/>
</clipPath>
<clipPath id="clip2_75_28">
<rect width="15.4557" height="12.5995" fill="white" transform="translate(61.4557)"/>
</clipPath>
<clipPath id="clip3_75_28">
<rect width="15.4557" height="12.5995" fill="white" transform="translate(80.4557)"/>
</clipPath>
</defs>
</svg>
