<svg width="16" height="13" viewBox="0 0 16 13" fill="none" xmlns="http://www.w3.org/2000/svg">
<path d="M14.9561 4.43664L10.3228 3.86181L8.25162 0.277295C8.19504 0.179153 8.10198 0.0997053 7.98701 0.0514134C7.69868 -0.0700955 7.34831 0.0311619 7.20415 0.277295L5.13293 3.86181L0.499618 4.43664C0.371878 4.45221 0.255087 4.50362 0.165669 4.58151C0.0575671 4.67636 -0.0020017 4.80397 5.13623e-05 4.93629C0.00210443 5.06861 0.0656114 5.19483 0.176618 5.2872L3.52888 8.07723L2.73689 12.0169C2.71832 12.1086 2.7302 12.2028 2.77119 12.289C2.81217 12.3752 2.88062 12.4498 2.96878 12.5045C3.05693 12.5591 3.16126 12.5916 3.26993 12.5982C3.37861 12.6048 3.48728 12.5853 3.58363 12.5419L7.72788 10.6819L11.8721 12.5419C11.9853 12.5933 12.1167 12.6104 12.2426 12.5917C12.5601 12.545 12.7736 12.288 12.7189 12.0169L11.9269 8.07723L15.2791 5.2872C15.3704 5.21087 15.4306 5.11117 15.4489 5.00212C15.4981 4.7295 15.2755 4.47714 14.9561 4.43664V4.43664Z" fill="black"/>
</svg>
