<svg width="51" height="34" viewBox="0 0 51 34" fill="none" xmlns="http://www.w3.org/2000/svg">
<path d="M30.1172 12.0547C30.1172 12.8984 29.9688 13.8125 29.6719 14.7969C29.375 15.7656 28.8906 16.6719 28.2188 17.5156C27.5625 18.3438 26.6953 19.0391 25.6172 19.6016C24.5547 20.1641 23.2578 20.4453 21.7266 20.4453H10.7344V14.6562H21.7266C22.5547 14.6562 23.1953 14.4062 23.6484 13.9062C24.1016 13.3906 24.3281 12.7578 24.3281 12.0078C24.3281 11.2109 24.0703 10.5859 23.5547 10.1328C23.0547 9.67969 22.4453 9.45312 21.7266 9.45312H10.7344C9.90625 9.45312 9.26562 9.71094 8.8125 10.2266C8.35938 10.7266 8.13281 11.3516 8.13281 12.1016V20.6094C8.13281 21.4219 8.38281 22.0547 8.88281 22.5078C9.39844 22.9609 10.0312 23.1875 10.7812 23.1875H21.7266V29H10.7344C9.89062 29 8.97656 28.8516 7.99219 28.5547C7.02344 28.2578 6.11719 27.7812 5.27344 27.125C4.44531 26.4531 3.75 25.5859 3.1875 24.5234C2.625 23.4453 2.34375 22.1406 2.34375 20.6094V12.0547C2.34375 11.2109 2.49219 10.3047 2.78906 9.33594C3.08594 8.35156 3.5625 7.44531 4.21875 6.61719C4.89062 5.77344 5.75781 5.07031 6.82031 4.50781C7.89844 3.94531 9.20312 3.66406 10.7344 3.66406H21.7266C22.5703 3.66406 23.4766 3.8125 24.4453 4.10938C25.4297 4.40625 26.3359 4.89062 27.1641 5.5625C28.0078 6.21875 28.7109 7.08594 29.2734 8.16406C29.8359 9.22656 30.1172 10.5234 30.1172 12.0547Z" fill="#4C127A"/>
<path d="M50.0531 3.66406C49.3656 5.80469 48.5609 7.91406 47.6391 9.99219C46.7172 12.0703 45.6547 14.0547 44.4516 15.9453C43.2641 17.8203 41.9281 19.5625 40.4438 21.1719C38.975 22.7656 37.3422 24.1484 35.5453 25.3203C33.7641 26.4766 31.8188 27.3906 29.7094 28.0625C27.6156 28.7188 25.3422 29.0469 22.8891 29.0469C22.4672 29.0469 22.0688 28.9688 21.6938 28.8125C21.3188 28.6562 20.9906 28.4453 20.7094 28.1797C20.4281 27.8984 20.2094 27.5781 20.0531 27.2188C19.8969 26.8438 19.8188 26.4453 19.8188 26.0234V3.66406H25.9125V22.7188C27.3969 22.7188 28.8188 22.3984 30.1781 21.7578C31.5531 21.1172 32.85 20.2734 34.0688 19.2266C35.2875 18.1641 36.4125 16.9609 37.4438 15.6172C38.4906 14.2734 39.4203 12.8984 40.2328 11.4922C41.0453 10.0703 41.7328 8.67969 42.2953 7.32031C42.8734 5.96094 43.3031 4.74219 43.5844 3.66406H50.0531Z" fill="black"/>
</svg>
